<?xml version="1.0" encoding="utf-8"?>
<!-- Generator: Adobe Illustrator 27.5.0, SVG Export Plug-In . SVG Version: 6.00 Build 0)  -->
<svg version="1.1" xmlns="http://www.w3.org/2000/svg" xmlns:xlink="http://www.w3.org/1999/xlink" x="0px" y="0px"
	 viewBox="0 0 3710 3710" style="enable-background:new 0 0 3710 3710;" xml:space="preserve">
<g id="Background">
	<g>
		<g>
			<rect style="fill:#FFFFFF;" width="3710" height="3710"/>
		</g>
	</g>
</g>
<g id="Illustration">
	<g>
		<path style="fill:#F4F7FA;" d="M2574.19,617.716c95.858,134.197-12.564,354.539,128.632,454.739
			c137.444,97.537,303.304-66.455,432.751,17.388c192.028,124.375,163.287,703.041-111.743,1065.282
			c-82.71,108.938-152.329,151.718-182.071,274.252c-63.868,263.11,171.94,416.743,128.744,546.995
			c-97.262,293.28-1637.786,554.725-2266.188-316.99c-293.489-407.127-342.987-998.96-89.352-1451.524
			C1073.277,390.08,2359.101,316.603,2574.19,617.716z"/>
		<g>
			<g>
				<g>
					<path style="fill:#97A6B7;" d="M3062.022,1088.063l-33.661-6.26c1.855-22.664,0.517-45.004-3.672-66.543l31.549-11.159
						c8.622-3.049,13.191-12.721,10.222-21.623l-7.92-23.745c-2.987-8.956-12.442-13.815-21.137-10.83l-31.092,10.672
						c-9.636-20.78-22.142-40.233-37.152-57.763l21.373-24.727c6.133-7.095,5.35-18.094-1.758-24.596l-19.003-17.383
						c-7.184-6.571-18.065-6.146-24.293,0.98l-21.356,24.436c-18.993-13.602-40.17-24.818-63.187-33.022l6.117-32.584
						c1.805-9.613-4.572-19.25-14.273-21.534l-25.964-6.111c-9.826-2.313-19.295,3.685-21.12,13.403l-6.185,32.942
						c-24.835-2.553-49.439-1.482-73.196,2.863l-11.89-33.064c-3.494-9.716-14.267-15.251-24.083-12.34l-26.255,7.787
						c-9.928,2.945-15.09,13.291-11.506,23.086l12.392,33.869c-22.456,10.293-43.328,23.744-61.911,39.951l-29.282-24.687
						c-8.302-6.999-20.733-6.512-27.754,1.12l-18.734,20.364c-7.068,7.683-5.962,19.583,2.457,26.546l30.379,25.124
						c-13.464,19.883-24.17,41.897-31.488,65.641l-40.677-7.564c-10.948-2.036-21.406,4.588-23.324,14.802l-5.099,27.162
						c-1.918,10.213,5.45,20.053,16.42,21.972l41.842,7.317c-0.924,24.358,1.802,48.223,7.762,71.023l-40.772,13.995
						c-10.396,3.568-15.751,14.302-11.937,23.948l10.11,25.568c3.789,9.582,15.229,14.376,25.529,10.733l41.324-14.616
						c11.584,20.407,25.997,39.132,42.796,55.62l-28.328,32.413c-6.906,7.902-5.84,19.372,2.368,25.588l21.707,16.44
						c8.116,6.147,20.193,4.734,26.987-3.126l28.18-32.603c19.648,11.371,41.031,20.262,63.775,26.215l-7.66,40.805
						c-1.824,9.718,4.846,18.628,14.868,19.895l26.482,3.351c9.895,1.252,19.354-5.529,21.159-15.141l7.578-40.362
						c23.088,0.376,45.62-2.322,67.135-7.707l13.526,36.968c3.232,8.833,13.245,13.028,22.344,9.394l24.072-9.612
						c9.003-3.595,13.73-13.6,10.575-22.371l-13.053-36.299c19.731-10.37,37.977-23.226,54.253-38.178l28.684,23.723
						c7.042,5.823,17.641,4.584,23.685-2.743l16.024-19.426c6.007-7.282,5.251-17.914-1.699-23.773l-27.666-23.324
						c12.074-18.092,21.872-37.925,28.926-59.175l34.637,6.057c8.929,1.561,17.541-4.612,19.263-13.785l4.579-24.394
						C3076.738,1098.494,3070.933,1089.72,3062.022,1088.063z M2751.893,1237.723c-100.267-14.999-169.085-107.921-150.472-207.064
						c18.613-99.142,116.648-161.842,215.766-140.727c95.75,20.398,156.842,111.925,139.358,205.051
						C2939.062,1188.108,2848.752,1252.212,2751.893,1237.723z"/>
					<polygon style="fill:#97A6B7;" points="2723.426,774.964 2699.614,769.638 2687.315,789.575 					"/>
					<polygon style="fill:#97A6B7;" points="2959.218,829.498 2986.803,834.962 2982.976,855.348 					"/>
					<polygon style="fill:#97A6B7;" points="3046.08,947.608 3073.419,953.893 3063.636,968.027 					"/>
					<polygon style="fill:#97A6B7;" points="3064.348,1088.798 3091.759,1096.225 3080.134,1108.017 					"/>
					<polygon style="fill:#97A6B7;" points="2982.227,1271.02 3008.5,1279.945 3015.943,1258.526 					"/>
					<polygon style="fill:#97A6B7;" points="2860.249,1351.075 2883.665,1360.034 2888.955,1342.489 					"/>
					<polygon style="fill:#97A6B7;" points="2730.968,1371.294 2709.929,1363.351 2733.885,1339.045 					"/>
					<polygon style="fill:#97A6B7;" points="2617.457,1325.742 2593.095,1315.75 2617.103,1295.73 					"/>
					<polygon style="fill:#97A6B7;" points="2560.264,845.006 2586.556,850.797 2572.467,868.116 					"/>
					<polygon style="fill:#97A6B7;" points="2468.703,1042.567 2492.273,1050.7 2494.069,1030.503 					"/>
					<polygon style="fill:#97A6B7;" points="2493.514,1197.522 2516.481,1205.827 2521.358,1190.486 					"/>
				</g>
				<path style="fill:#D8DEE8;" d="M3088.799,1095.351l-33.94-6.312c1.87-22.848,0.52-45.371-3.704-67.085l31.811-11.249
					c8.694-3.074,13.3-12.824,10.306-21.799l-7.986-23.939c-3.012-9.029-12.545-13.928-21.312-10.919l-31.349,10.759
					c-9.717-20.95-22.327-40.562-37.462-58.235l21.549-24.929c6.183-7.152,5.394-18.241-1.773-24.796l-19.161-17.525
					c-7.244-6.625-18.215-6.196-24.494,0.987l-21.532,24.635c-19.15-13.713-40.503-25.021-63.711-33.293l6.167-32.85
					c1.819-9.691-4.61-19.408-14.392-21.71l-26.179-6.162c-9.907-2.332-19.455,3.714-21.294,13.511l-6.235,33.211
					c-25.041-2.575-49.849-1.495-73.802,2.885l-11.99-33.333c-3.523-9.795-14.385-15.376-24.283-12.441l-26.472,7.849
					c-10.01,2.969-15.215,13.399-11.601,23.273l12.496,34.146c-22.642,10.377-43.686,23.937-62.422,40.275l-29.525-24.889
					c-8.371-7.056-20.905-6.566-27.984,1.128l-18.888,20.529c-7.126,7.746-6.011,19.742,2.479,26.763l30.631,25.33
					c-13.575,20.045-24.369,42.237-31.747,66.175l-41.015-7.627c-11.038-2.053-21.584,4.625-23.517,14.921l-5.141,27.384
					c-1.933,10.297,5.496,20.217,16.557,22.152l42.189,7.378c-0.932,24.556,1.818,48.616,7.828,71.602l-41.109,14.107
					c-10.483,3.597-15.882,14.419-12.035,24.144l10.195,25.777c3.821,9.66,15.355,14.493,25.74,10.821l41.667-14.734
					c11.681,20.574,26.213,39.452,43.152,56.074l-28.562,32.677c-6.963,7.966-5.888,19.53,2.388,25.797l21.886,16.574
					c8.184,6.197,20.361,4.773,27.211-3.151l28.413-32.868c19.811,11.465,41.372,20.428,64.304,26.43l-7.723,41.138
					c-1.839,9.797,4.887,18.779,14.992,20.058l26.701,3.379c9.977,1.262,19.514-5.573,21.334-15.264l7.639-40.69
					c23.28,0.38,45.998-2.341,67.691-7.769l13.64,37.27c3.259,8.905,13.355,13.134,22.53,9.471l24.271-9.69
					c9.077-3.624,13.843-13.711,10.662-22.553l-13.163-36.595c19.894-10.454,38.291-23.414,54.701-38.488l28.922,23.917
					c7.1,5.871,17.787,4.621,23.881-2.765l16.156-19.584c6.057-7.341,5.294-18.06-1.713-23.967l-27.896-23.514
					c12.174-18.239,22.052-38.233,29.164-59.657l34.924,6.108c9.002,1.575,17.686-4.649,19.422-13.896l4.617-24.592
					C3103.638,1105.869,3097.784,1097.022,3088.799,1095.351z M2776.104,1246.224c-101.097-15.123-170.489-108.805-151.724-208.755
					c18.765-99.95,117.61-163.159,217.55-141.869c96.543,20.567,158.144,112.842,140.518,206.725
					C2964.823,1196.21,2873.766,1260.833,2776.104,1246.224z"/>
			</g>
		</g>
		<g>
			<g>
				
					<linearGradient id="SVGID_1_" gradientUnits="userSpaceOnUse" x1="2187.8069" y1="-611.3268" x2="363.099" y2="821.6344" gradientTransform="matrix(1 0 0 -1 0 656.8221)">
					<stop  offset="0" style="stop-color:#D8DEE8"/>
					<stop  offset="0.9964" style="stop-color:#97A6B7"/>
				</linearGradient>
				<path style="fill:url(#SVGID_1_);" d="M695.442,819.89V706.251l0.18-0.007c7.596-68.588,320.376-194.555,774.671-196.884
					c667.97-3.423,893.553,133.384,904.049,203.435h0.25v104.712L695.442,819.89z"/>
				<path style="fill:#FFFFFF;" d="M2374.592,817.085c0-70.64-385.413-126.42-853.154-124.618
					c-459.459,1.77-825.996,58.624-825.996,127.015c0,68.391,366.537,124.199,825.996,124.657
					C1989.179,944.606,2374.592,887.725,2374.592,817.085z"/>
				
					<linearGradient id="SVGID_00000019680535946073461490000006561247568824177844_" gradientUnits="userSpaceOnUse" x1="2133.2053" y1="-646.7591" x2="308.499" y2="786.201" gradientTransform="matrix(1 -0.0219 0 -1 0 683.5173)">
					<stop  offset="0" style="stop-color:#D8DEE8"/>
					<stop  offset="0.9964" style="stop-color:#97A6B7"/>
				</linearGradient>
				<path style="fill:url(#SVGID_00000019680535946073461490000006561247568824177844_);" d="M2368.085,825.681
					c0-70.109-382.469-125.587-846.753-123.941c-456.186,1.618-820.199,57.963-820.199,125.874
					c0,67.911,364.013,123.411,820.199,123.971C1985.617,952.157,2368.085,895.791,2368.085,825.681z"/>
				
					<linearGradient id="SVGID_00000076584205389366466920000004467311507014957962_" gradientUnits="userSpaceOnUse" x1="2182.5435" y1="-618.0295" x2="357.8412" y2="814.9273" gradientTransform="matrix(1 0 0 -1 0 656.8221)">
					<stop  offset="0" style="stop-color:#D8DEE8"/>
					<stop  offset="0.9964" style="stop-color:#97A6B7"/>
				</linearGradient>
				<polygon style="fill:url(#SVGID_00000076584205389366466920000004467311507014957962_);" points="2374.592,712.795 
					2374.592,817.507 695.442,819.89 695.442,706.251 				"/>
				<path style="fill:#FFFFFF;" d="M2374.592,817.085c0-70.64-385.413-126.42-853.154-124.618
					c-459.459,1.77-825.996,58.624-825.996,127.015c0,68.391,366.537,124.199,825.996,124.657
					C1989.179,944.606,2374.592,887.725,2374.592,817.085z"/>
				
					<linearGradient id="SVGID_00000108995848212542499560000007997405965292729266_" gradientUnits="userSpaceOnUse" x1="1429.6853" y1="1508.662" x2="1522.4677" y2="905.5799">
					<stop  offset="0" style="stop-color:#D8DEE8"/>
					<stop  offset="0.9964" style="stop-color:#97A6B7"/>
				</linearGradient>
				<path style="fill:url(#SVGID_00000108995848212542499560000007997405965292729266_);" d="M2368.085,825.681
					c0-70.109-382.469-125.587-846.753-123.941c-456.186,1.618-820.199,57.963-820.199,125.874
					c0,67.911,364.013,123.411,820.199,123.971C1985.617,952.157,2368.085,895.791,2368.085,825.681z"/>
			</g>
			<g>
				
					<linearGradient id="SVGID_00000100353806538407356630000010860634540480509595_" gradientUnits="userSpaceOnUse" x1="2083.8262" y1="-743.7347" x2="259.1178" y2="689.2269" gradientTransform="matrix(1 0 0 -1 0 656.8221)">
					<stop  offset="0" style="stop-color:#D8DEE8"/>
					<stop  offset="0.9964" style="stop-color:#97A6B7"/>
				</linearGradient>
				<path style="fill:url(#SVGID_00000100353806538407356630000010860634540480509595_);" d="M695.442,1035.269V921.63l0.18-0.007
					c7.596-68.588,320.375-188.584,774.671-186.442c719.901,3.395,893.553,122.943,904.049,192.993h0.25v104.712L695.442,1035.269z"
					/>
				<path style="fill:#FFFFFF;" d="M2374.592,1032.464c0-70.64-385.413-126.42-853.154-124.618
					c-459.459,1.77-825.996,58.624-825.996,127.015s366.537,124.198,825.996,124.656
					C1989.179,1159.984,2374.592,1103.104,2374.592,1032.464z"/>
				
					<linearGradient id="SVGID_00000047760380912582615250000014064683790912102794_" gradientUnits="userSpaceOnUse" x1="2028.5867" y1="-779.9799" x2="203.8803" y2="652.9803" gradientTransform="matrix(1 -0.0219 0 -1 0 683.5173)">
					<stop  offset="0" style="stop-color:#D8DEE8"/>
					<stop  offset="0.9964" style="stop-color:#97A6B7"/>
				</linearGradient>
				<path style="fill:url(#SVGID_00000047760380912582615250000014064683790912102794_);" d="M2368.085,1041.06
					c0-70.109-382.469-125.588-846.753-123.941c-456.186,1.618-820.199,57.963-820.199,125.874
					c0,67.911,364.013,123.411,820.199,123.971C1985.617,1167.535,2368.085,1111.17,2368.085,1041.06z"/>
				
					<linearGradient id="SVGID_00000003811029580141767330000008505322472008615583_" gradientUnits="userSpaceOnUse" x1="2077.9241" y1="-751.2498" x2="253.222" y2="681.707" gradientTransform="matrix(1 0 0 -1 0 656.8221)">
					<stop  offset="0" style="stop-color:#D8DEE8"/>
					<stop  offset="0.9964" style="stop-color:#97A6B7"/>
				</linearGradient>
				<polygon style="fill:url(#SVGID_00000003811029580141767330000008505322472008615583_);" points="2374.592,928.173 
					2374.592,1032.885 695.442,1035.269 695.442,921.63 				"/>
				<path style="fill:#FFFFFF;" d="M2374.592,1032.464c0-70.64-385.413-126.42-853.154-124.618
					c-459.459,1.77-825.996,58.624-825.996,127.015s366.537,124.198,825.996,124.656
					C1989.179,1159.984,2374.592,1103.104,2374.592,1032.464z"/>
				
					<linearGradient id="SVGID_00000041998070004495696680000008493210449779122864_" gradientUnits="userSpaceOnUse" x1="1468.0675" y1="1444.6176" x2="1571.1575" y2="820.9219">
					<stop  offset="0" style="stop-color:#D8DEE8"/>
					<stop  offset="0.9964" style="stop-color:#97A6B7"/>
				</linearGradient>
				<path style="fill:url(#SVGID_00000041998070004495696680000008493210449779122864_);" d="M2368.085,1041.06
					c0-70.109-382.469-125.588-846.753-123.941c-456.186,1.618-820.199,57.963-820.199,125.874
					c0,67.911,364.013,123.411,820.199,123.971C1985.617,1167.535,2368.085,1111.17,2368.085,1041.06z"/>
			</g>
			<g>
				
					<linearGradient id="SVGID_00000181807245805975777860000006714763430210547871_" gradientUnits="userSpaceOnUse" x1="1978.9493" y1="-877.2822" x2="154.2411" y2="555.6794" gradientTransform="matrix(1 0 0 -1 0 656.8221)">
					<stop  offset="0" style="stop-color:#D8DEE8"/>
					<stop  offset="0.9964" style="stop-color:#97A6B7"/>
				</linearGradient>
				<path style="fill:url(#SVGID_00000181807245805975777860000006714763430210547871_);" d="M695.442,1251.177v-113.639l0.18-0.007
					c7.596-68.588,320.375-188.584,774.671-186.442c719.901,3.395,893.553,122.943,904.049,192.993h0.25v104.712L695.442,1251.177z"
					/>
				<path style="fill:#FFFFFF;" d="M2374.592,1248.372c0-70.64-385.413-126.419-853.154-124.617
					c-459.459,1.77-825.996,58.624-825.996,127.015c0,68.391,366.537,124.198,825.996,124.656
					C1989.179,1375.893,2374.592,1319.012,2374.592,1248.372z"/>
				
					<linearGradient id="SVGID_00000106849297172485600990000001283898192715113902_" gradientUnits="userSpaceOnUse" x1="1923.7095" y1="-913.5272" x2="99.003" y2="519.4329" gradientTransform="matrix(1 -0.0219 0 -1 0 683.5173)">
					<stop  offset="0" style="stop-color:#D8DEE8"/>
					<stop  offset="0.9964" style="stop-color:#97A6B7"/>
				</linearGradient>
				<path style="fill:url(#SVGID_00000106849297172485600990000001283898192715113902_);" d="M2368.085,1256.969
					c0-70.109-382.469-125.588-846.753-123.941c-456.186,1.618-820.199,57.962-820.199,125.874
					c0,67.911,364.013,123.411,820.199,123.971C1985.617,1383.444,2368.085,1327.078,2368.085,1256.969z"/>
				
					<linearGradient id="SVGID_00000074428187008925979790000010940556082596627896_" gradientUnits="userSpaceOnUse" x1="1973.0483" y1="-884.798" x2="148.3462" y2="548.1588" gradientTransform="matrix(1 0 0 -1 0 656.8221)">
					<stop  offset="0" style="stop-color:#D8DEE8"/>
					<stop  offset="0.9964" style="stop-color:#97A6B7"/>
				</linearGradient>
				<polygon style="fill:url(#SVGID_00000074428187008925979790000010940556082596627896_);" points="2374.592,1144.082 
					2374.592,1248.794 695.442,1251.177 695.442,1137.538 				"/>
				<path style="fill:#FFFFFF;" d="M2374.592,1248.372c0-70.64-385.413-126.419-853.154-124.617
					c-459.459,1.77-825.996,58.624-825.996,127.015c0,68.391,366.537,124.198,825.996,124.656
					C1989.179,1375.893,2374.592,1319.012,2374.592,1248.372z"/>
				
					<linearGradient id="SVGID_00000145017391892894247890000009034667667610207417_" gradientUnits="userSpaceOnUse" x1="1452.597" y1="1844.33" x2="1555.6885" y2="1107.2311">
					<stop  offset="0" style="stop-color:#D8DEE8"/>
					<stop  offset="0.9964" style="stop-color:#97A6B7"/>
				</linearGradient>
				<path style="fill:url(#SVGID_00000145017391892894247890000009034667667610207417_);" d="M2368.085,1256.969
					c0-70.109-382.469-125.588-846.753-123.941c-456.186,1.618-820.199,57.962-820.199,125.874
					c0,67.911,364.013,123.411,820.199,123.971C1985.617,1383.444,2368.085,1327.078,2368.085,1256.969z"/>
			</g>
			<g>
				
					<linearGradient id="SVGID_00000026865926161375102400000014522039975324865434_" gradientUnits="userSpaceOnUse" x1="1874.0734" y1="-1010.8304" x2="49.3656" y2="422.1308" gradientTransform="matrix(1 0 0 -1 0 656.8221)">
					<stop  offset="0" style="stop-color:#D8DEE8"/>
					<stop  offset="0.9964" style="stop-color:#97A6B7"/>
				</linearGradient>
				<path style="fill:url(#SVGID_00000026865926161375102400000014522039975324865434_);" d="M695.442,1467.086v-113.639l0.18-0.007
					c7.596-68.588,320.375-188.584,774.671-186.443c719.901,3.395,893.553,122.943,904.049,192.993h0.25v104.712L695.442,1467.086z"
					/>
				<path style="fill:#FFFFFF;" d="M2374.592,1464.281c0-70.639-385.413-126.419-853.154-124.617
					c-459.459,1.769-825.996,58.624-825.996,127.015s366.537,124.198,825.996,124.656
					C1989.179,1591.801,2374.592,1534.92,2374.592,1464.281z"/>
				
					<linearGradient id="SVGID_00000037688939384285143120000010149190967402662810_" gradientUnits="userSpaceOnUse" x1="1818.8334" y1="-1047.0752" x2="-5.8735" y2="385.8852" gradientTransform="matrix(1 -0.0219 0 -1 0 683.5173)">
					<stop  offset="0" style="stop-color:#D8DEE8"/>
					<stop  offset="0.9964" style="stop-color:#97A6B7"/>
				</linearGradient>
				<path style="fill:url(#SVGID_00000037688939384285143120000010149190967402662810_);" d="M2368.085,1472.877
					c0-70.11-382.469-125.589-846.753-123.941c-456.186,1.618-820.199,57.963-820.199,125.874
					c0,67.911,364.013,123.411,820.199,123.971C1985.617,1599.351,2368.085,1542.987,2368.085,1472.877z"/>
				
					<linearGradient id="SVGID_00000142172926215006991060000000347887291748754057_" gradientUnits="userSpaceOnUse" x1="1868.1713" y1="-1018.3452" x2="43.4696" y2="414.6113" gradientTransform="matrix(1 0 0 -1 0 656.8221)">
					<stop  offset="0" style="stop-color:#D8DEE8"/>
					<stop  offset="0.9964" style="stop-color:#97A6B7"/>
				</linearGradient>
				<polygon style="fill:url(#SVGID_00000142172926215006991060000000347887291748754057_);" points="2374.592,1359.99 
					2374.592,1464.702 695.442,1467.086 695.442,1353.447 				"/>
				<path style="fill:#FFFFFF;" d="M2374.592,1464.281c0-70.639-385.413-126.419-853.154-124.617
					c-459.459,1.769-825.996,58.624-825.996,127.015s366.537,124.198,825.996,124.656
					C1989.179,1591.801,2374.592,1534.92,2374.592,1464.281z"/>
				
					<linearGradient id="SVGID_00000131343238725170924320000018325727096544930459_" gradientUnits="userSpaceOnUse" x1="1818.8334" y1="-1047.0752" x2="-5.8735" y2="385.8852" gradientTransform="matrix(1 -0.0219 0 -1 0 683.5173)">
					<stop  offset="0" style="stop-color:#D8DEE8"/>
					<stop  offset="0.9964" style="stop-color:#97A6B7"/>
				</linearGradient>
				<path style="fill:url(#SVGID_00000131343238725170924320000018325727096544930459_);" d="M2368.085,1472.877
					c0-70.11-382.469-125.589-846.753-123.941c-456.186,1.618-820.199,57.963-820.199,125.874
					c0,67.911,364.013,123.411,820.199,123.971C1985.617,1599.351,2368.085,1542.987,2368.085,1472.877z"/>
			</g>
			<g>
				
					<linearGradient id="SVGID_00000041987946543607461470000005610227315218036885_" gradientUnits="userSpaceOnUse" x1="1769.1965" y1="-1144.3781" x2="-55.5116" y2="288.5834" gradientTransform="matrix(1 0 0 -1 0 656.8221)">
					<stop  offset="0" style="stop-color:#D8DEE8"/>
					<stop  offset="0.9964" style="stop-color:#97A6B7"/>
				</linearGradient>
				<path style="fill:url(#SVGID_00000041987946543607461470000005610227315218036885_);" d="M695.442,1682.994v-113.639l0.18-0.008
					c7.596-68.588,320.375-188.585,774.671-186.442c719.901,3.395,893.553,122.943,904.049,192.993h0.25v104.712L695.442,1682.994z"
					/>
				<path style="fill:#FFFFFF;" d="M2374.592,1680.189c0-70.64-385.413-126.419-853.154-124.617
					c-459.459,1.77-825.996,58.624-825.996,127.014c0,68.392,366.537,124.198,825.996,124.656
					C1989.179,1807.709,2374.592,1750.829,2374.592,1680.189z"/>
				
					<linearGradient id="SVGID_00000114051901894188609590000013536909750221217449_" gradientUnits="userSpaceOnUse" x1="1713.9562" y1="-1180.6226" x2="-110.7507" y2="252.3379" gradientTransform="matrix(1 -0.0219 0 -1 0 683.5173)">
					<stop  offset="0" style="stop-color:#D8DEE8"/>
					<stop  offset="0.9964" style="stop-color:#97A6B7"/>
				</linearGradient>
				<path style="fill:url(#SVGID_00000114051901894188609590000013536909750221217449_);" d="M2368.085,1688.786
					c0-70.11-382.469-125.589-846.753-123.941c-456.186,1.619-820.199,57.963-820.199,125.874
					c0,67.911,364.013,123.411,820.199,123.971C1985.617,1815.26,2368.085,1758.895,2368.085,1688.786z"/>
				
					<linearGradient id="SVGID_00000034082331448947904200000006558688252358230700_" gradientUnits="userSpaceOnUse" x1="1763.2943" y1="-1151.8927" x2="-61.4073" y2="281.0636" gradientTransform="matrix(1 0 0 -1 0 656.8221)">
					<stop  offset="0" style="stop-color:#D8DEE8"/>
					<stop  offset="0.9964" style="stop-color:#97A6B7"/>
				</linearGradient>
				<polygon style="fill:url(#SVGID_00000034082331448947904200000006558688252358230700_);" points="2374.592,1575.898 
					2374.592,1680.61 695.442,1682.994 695.442,1569.355 				"/>
				<path style="fill:#FFFFFF;" d="M2374.592,1680.189c0-70.64-385.413-126.419-853.154-124.617
					c-459.459,1.77-825.996,58.624-825.996,127.014c0,68.392,366.537,124.198,825.996,124.656
					C1989.179,1807.709,2374.592,1750.829,2374.592,1680.189z"/>
				
					<linearGradient id="SVGID_00000116914054818728484350000000555437375606570160_" gradientUnits="userSpaceOnUse" x1="1713.9562" y1="-1180.6226" x2="-110.7507" y2="252.3379" gradientTransform="matrix(1 -0.0219 0 -1 0 683.5173)">
					<stop  offset="0" style="stop-color:#D8DEE8"/>
					<stop  offset="0.9964" style="stop-color:#97A6B7"/>
				</linearGradient>
				<path style="fill:url(#SVGID_00000116914054818728484350000000555437375606570160_);" d="M2368.085,1688.786
					c0-70.11-382.469-125.589-846.753-123.941c-456.186,1.619-820.199,57.963-820.199,125.874
					c0,67.911,364.013,123.411,820.199,123.971C1985.617,1815.26,2368.085,1758.895,2368.085,1688.786z"/>
			</g>
			<g>
				
					<linearGradient id="SVGID_00000100350237481504367280000009464138894943167137_" gradientUnits="userSpaceOnUse" x1="1664.3197" y1="-1277.9255" x2="-160.3884" y2="155.0359" gradientTransform="matrix(1 0 0 -1 0 656.8221)">
					<stop  offset="0" style="stop-color:#D8DEE8"/>
					<stop  offset="0.9964" style="stop-color:#97A6B7"/>
				</linearGradient>
				<path style="fill:url(#SVGID_00000100350237481504367280000009464138894943167137_);" d="M695.442,1898.903v-113.639l0.18-0.007
					c7.596-68.588,320.375-188.585,774.671-186.442c719.901,3.394,893.553,122.943,904.049,192.993h0.25v104.712L695.442,1898.903z"
					/>
				<path style="fill:#FFFFFF;" d="M2374.592,1896.098c0-70.64-385.413-126.42-853.154-124.618
					c-459.459,1.77-825.996,58.625-825.996,127.015c0,68.392,366.537,124.198,825.996,124.657
					C1989.179,2023.618,2374.592,1966.737,2374.592,1896.098z"/>
				
					<linearGradient id="SVGID_00000060738292060748476250000003917093719799973043_" gradientUnits="userSpaceOnUse" x1="1609.08" y1="-1314.1705" x2="-215.6264" y2="118.7896" gradientTransform="matrix(1 -0.0219 0 -1 0 683.5173)">
					<stop  offset="0" style="stop-color:#D8DEE8"/>
					<stop  offset="0.9964" style="stop-color:#97A6B7"/>
				</linearGradient>
				<path style="fill:url(#SVGID_00000060738292060748476250000003917093719799973043_);" d="M2368.085,1904.693
					c0-70.109-382.469-125.588-846.753-123.941c-456.186,1.618-820.199,57.963-820.199,125.874
					c0,67.911,364.013,123.411,820.199,123.971C1985.617,2031.169,2368.085,1974.804,2368.085,1904.693z"/>
				
					<linearGradient id="SVGID_00000045604525495346260530000010264888096674757535_" gradientUnits="userSpaceOnUse" x1="1658.4185" y1="-1285.4412" x2="-166.2836" y2="147.5155" gradientTransform="matrix(1 0 0 -1 0 656.8221)">
					<stop  offset="0" style="stop-color:#D8DEE8"/>
					<stop  offset="0.9964" style="stop-color:#97A6B7"/>
				</linearGradient>
				<polygon style="fill:url(#SVGID_00000045604525495346260530000010264888096674757535_);" points="2374.592,1791.807 
					2374.592,1896.519 695.442,1898.903 695.442,1785.263 				"/>
				<path style="fill:#FFFFFF;" d="M2374.592,1896.098c0-70.64-385.413-126.42-853.154-124.618
					c-459.459,1.77-825.996,58.625-825.996,127.015c0,68.392,366.537,124.198,825.996,124.657
					C1989.179,2023.618,2374.592,1966.737,2374.592,1896.098z"/>
				
					<linearGradient id="SVGID_00000141451821204797073880000013160316256268698270_" gradientUnits="userSpaceOnUse" x1="1609.08" y1="-1314.1705" x2="-215.6264" y2="118.7896" gradientTransform="matrix(1 -0.0219 0 -1 0 683.5173)">
					<stop  offset="0" style="stop-color:#D8DEE8"/>
					<stop  offset="0.9964" style="stop-color:#97A6B7"/>
				</linearGradient>
				<path style="fill:url(#SVGID_00000141451821204797073880000013160316256268698270_);" d="M2368.085,1904.693
					c0-70.109-382.469-125.588-846.753-123.941c-456.186,1.618-820.199,57.963-820.199,125.874
					c0,67.911,364.013,123.411,820.199,123.971C1985.617,2031.169,2368.085,1974.804,2368.085,1904.693z"/>
			</g>
			<g>
				
					<linearGradient id="SVGID_00000141434319094913462150000014015698718368281222_" gradientUnits="userSpaceOnUse" x1="1559.443" y1="-1411.4733" x2="-265.2654" y2="21.4884" gradientTransform="matrix(1 0 0 -1 0 656.8221)">
					<stop  offset="0" style="stop-color:#D8DEE8"/>
					<stop  offset="0.9964" style="stop-color:#97A6B7"/>
				</linearGradient>
				<path style="fill:url(#SVGID_00000141434319094913462150000014015698718368281222_);" d="M695.442,2114.811v-113.639l0.18-0.007
					c7.596-68.588,320.375-188.585,774.671-186.443c719.901,3.395,893.553,122.943,904.049,192.993h0.25v104.712L695.442,2114.811z"
					/>
				<path style="fill:#FFFFFF;" d="M2374.592,2112.006c0-70.64-385.413-126.419-853.154-124.617
					c-459.459,1.77-825.996,58.624-825.996,127.015c0,68.391,366.537,124.198,825.996,124.657
					C1989.179,2239.526,2374.592,2182.646,2374.592,2112.006z"/>
				
					<linearGradient id="SVGID_00000016770559583091745510000010703490284305896086_" gradientUnits="userSpaceOnUse" x1="1504.2037" y1="-1447.7188" x2="-320.5025" y2="-14.7587" gradientTransform="matrix(1 -0.0219 0 -1 0 683.5173)">
					<stop  offset="0" style="stop-color:#D8DEE8"/>
					<stop  offset="0.9964" style="stop-color:#97A6B7"/>
				</linearGradient>
				<path style="fill:url(#SVGID_00000016770559583091745510000010703490284305896086_);" d="M2368.085,2120.602
					c0-70.109-382.469-125.588-846.753-123.941c-456.186,1.618-820.199,57.963-820.199,125.874
					c0,67.911,364.013,123.411,820.199,123.971C1985.617,2247.077,2368.085,2190.712,2368.085,2120.602z"/>
				
					<linearGradient id="SVGID_00000175300517278778244330000014750639528659084974_" gradientUnits="userSpaceOnUse" x1="1553.5415" y1="-1418.9888" x2="-271.1608" y2="13.9681" gradientTransform="matrix(1 0 0 -1 0 656.8221)">
					<stop  offset="0" style="stop-color:#D8DEE8"/>
					<stop  offset="0.9964" style="stop-color:#97A6B7"/>
				</linearGradient>
				<polygon style="fill:url(#SVGID_00000175300517278778244330000014750639528659084974_);" points="2374.592,2007.715 
					2374.592,2112.427 695.442,2114.811 695.442,2001.172 				"/>
				<path style="fill:#FFFFFF;" d="M2374.592,2112.006c0-70.64-385.413-126.419-853.154-124.617
					c-459.459,1.77-825.996,58.624-825.996,127.015c0,68.391,366.537,124.198,825.996,124.657
					C1989.179,2239.526,2374.592,2182.646,2374.592,2112.006z"/>
				
					<linearGradient id="SVGID_00000069374930036121202130000008530817149504066738_" gradientUnits="userSpaceOnUse" x1="1504.2037" y1="-1447.7188" x2="-320.5025" y2="-14.7587" gradientTransform="matrix(1 -0.0219 0 -1 0 683.5173)">
					<stop  offset="0" style="stop-color:#D8DEE8"/>
					<stop  offset="0.9964" style="stop-color:#97A6B7"/>
				</linearGradient>
				<path style="fill:url(#SVGID_00000069374930036121202130000008530817149504066738_);" d="M2368.085,2120.602
					c0-70.109-382.469-125.588-846.753-123.941c-456.186,1.618-820.199,57.963-820.199,125.874
					c0,67.911,364.013,123.411,820.199,123.971C1985.617,2247.077,2368.085,2190.712,2368.085,2120.602z"/>
			</g>
		</g>
		<g>
			<path style="fill:#FFFFFF;" d="M3113.544,1365.59L633.915,1244.298c-42.019-2.055-76.2,29.006-76.2,69.39v1754.032
				c0,40.383,34.181,71.857,76.2,70.307l2479.629-91.445c32.99-1.216,59.652-31.068,59.652-66.683V1432.991
				C3173.196,1397.376,3146.534,1367.204,3113.544,1365.59z"/>
			
				<linearGradient id="SVGID_00000138534603452754223640000006694657645496865672_" gradientUnits="userSpaceOnUse" x1="2400.804" y1="1525.562" x2="1053.6859" y2="3154.4749">
				<stop  offset="0" style="stop-color:#444B8C"/>
				<stop  offset="0.9964" style="stop-color:#26264F"/>
			</linearGradient>
			<path style="fill:url(#SVGID_00000138534603452754223640000006694657645496865672_);" d="M3135.387,1365.624L654.401,1244.298
				c-42.041-2.056-76.241,29.014-76.241,69.409v1754.504c0,40.394,34.2,71.876,76.241,70.327l2480.986-91.454
				c33.009-1.216,59.686-31.076,59.686-66.701V1433.044C3195.073,1397.419,3168.396,1367.238,3135.387,1365.624z"/>
			
				<linearGradient id="SVGID_00000034068032559090676360000012868248433405477013_" gradientUnits="userSpaceOnUse" x1="765.7191" y1="4002.9841" x2="1858.5342" y2="2209.1191">
				<stop  offset="0.0036" style="stop-color:#F36F56"/>
				<stop  offset="1" style="stop-color:#FFC444"/>
			</linearGradient>
			<path style="fill:url(#SVGID_00000034068032559090676360000012868248433405477013_);" d="M3098.278,1417.954l-2396.971-110.61
				c-34.299-1.583-62.183,23.891-62.183,56.908v1654.151c0,33.014,27.884,58.826,62.183,57.656l2396.971-81.749
				c27.164-0.927,49.13-25.402,49.13-54.669V1473.215C3147.408,1443.944,3125.442,1419.208,3098.278,1417.954z"/>
			<path style="fill:#FFFFFF;" d="M2747.662,2674.352c-98.179-1.962-194.488,59.293-307.25-1.624
				c-96.575-52.173-84.303-128.129-193.026-198.145c-119.307-76.827-171.582-10.43-301.8-73.102
				c-180.764-86.999-133.32-238.021-318.077-333.815c-145.424-75.395-246.069-20.202-324.217-118.553
				c-45.61-57.401-18.802-85.467-75.079-201.66c-25.161-51.944-72.187-149.035-167.04-221.336
				c-118.777-90.531-200.497-57.152-294.716-147.282c-44.149-42.232-69.616-91.066-84.854-133.207l-27.203-1.331
				c-42.041-2.056-76.241,29.014-76.241,69.409v1754.504c0,40.394,34.199,71.876,76.241,70.327l2480.986-91.454
				c3.625-0.133,7.155-0.666,10.6-1.459C2987.328,2748.339,2850.45,2676.406,2747.662,2674.352z"/>
			<path style="fill:#FFFFFF;" d="M977.178,1960.061c-1.819-0.03-3.554-0.807-4.776-2.14l-89.704-97.755
				c-1.73-1.884-2.173-4.556-1.129-6.814c1.042-2.258,3.372-3.678,5.945-3.622l38.892,0.845v-43.423l-73.218-1.736
				c-37.388-0.887-72.336-16.139-98.355-42.998c-26.068-26.906-39.541-61.785-37.888-98.154
				c3.044-67.029,59.904-120.314,129.054-121.318c7.792-0.109,15.624,0.417,23.287,1.571c3.494,0.516,6.786-1.12,8.186-4.105
				c31.276-66.641,100.625-107.585,176.314-104.484c47.7,1.954,93.177,21.049,128.128,53.694
				c34.597,32.312,56.139,75.242,60.742,120.94c0.407,4.051,3.941,7.103,8.123,7.119c1.573-0.021,3.15-0.005,4.738,0.047
				c26.995,0.888,52.224,12.159,71.069,31.712c18.808,19.515,28.905,44.86,28.456,71.397
				c-0.898,53.177-46.123,95.387-101.069,94.084l-144.104-3.417c-3.519-0.083-6.371-2.944-6.371-6.392v-65.067
				c0-3.447,2.852-6.163,6.371-6.067l30.123,0.822l-73.88-81.896l-74.386,77.849l30.451,0.831c3.546,0.097,6.419,2.978,6.419,6.437
				v114.773l37.515,0.815c2.53,0.055,4.822,1.563,5.845,3.846c1.025,2.282,0.59,4.912-1.11,6.707l-88.892,93.92
				C980.732,1959.374,978.996,1960.092,977.178,1960.061z M902.179,1862.647l74.999,81.795l74.486-78.635l-29.489-0.623
				c-3.547-0.075-6.423-2.941-6.423-6.402v-114.841l-38.574-1.031c-2.552-0.068-4.863-1.594-5.897-3.893
				c-1.034-2.299-0.594-4.938,1.121-6.731l88.97-93.036c2.424-2.537,7.05-2.39,9.473,0.3l88.17,97.812
				c1.686,1.87,2.118,4.509,1.101,6.734c-1.016,2.224-3.288,3.615-5.798,3.548l-38.084-1.017v52.554l137.737,3.345
				c48.162,1.169,87.826-35.731,88.612-82.249c0.392-23.216-8.446-45.389-24.904-62.453c-16.489-17.093-38.558-26.939-62.163-27.702
				c-1.391-0.044-2.771-0.058-4.146-0.039c-10.841,0.192-20.17-8.06-21.244-18.705c-8.985-89.166-84.507-159.229-176.341-162.938
				c-70.612-2.852-135.282,35.378-164.439,97.545c-3.733,7.966-12.4,12.382-21.594,11.008c-6.932-1.039-14.025-1.513-21.079-1.406
				c-62.462,0.941-113.794,49.093-116.542,109.63c-1.492,32.857,10.669,64.367,34.206,88.679
				c23.498,24.277,55.068,38.076,88.853,38.896l79.694,1.936c3.576,0.087,6.472,2.972,6.472,6.445v55.973
				c0,3.473-2.897,6.226-6.472,6.151L902.179,1862.647z"/>
			<g>
				<polygon style="fill:#FFFFFF;" points="1355.054,2069.54 716.808,2061.934 716.808,2039.57 1355.054,2047.824 				"/>
				<polygon style="fill:#FFFFFF;" points="1355.054,2119.272 716.808,2113.151 716.808,2090.787 1355.054,2097.556 				"/>
				<polygon style="fill:#FFFFFF;" points="1187.64,2167.788 716.808,2164.367 716.808,2142.003 1187.64,2145.902 				"/>
			</g>
			<g>
				<polygon style="fill:#FFFFFF;" points="1355.054,2862.96 716.808,2879.034 716.808,2856.67 1355.054,2841.244 				"/>
				<polygon style="fill:#FFFFFF;" points="1355.054,2912.692 716.808,2930.25 716.808,2907.886 1355.054,2890.976 				"/>
				<polygon style="fill:#FFFFFF;" points="1187.64,2967.419 716.808,2981.467 716.808,2959.103 1187.64,2945.534 				"/>
			</g>
			<g>
				<polygon style="fill:#FFFFFF;" points="2720.507,2828.573 2162.225,2842.633 2162.225,2821.736 2720.507,2808.243 				"/>
				<polygon style="fill:#FFFFFF;" points="2720.507,2875.131 2162.225,2890.488 2162.225,2869.592 2720.507,2854.801 				"/>
				<polygon style="fill:#FFFFFF;" points="2573.863,2926.063 2162.225,2938.344 2162.225,2917.447 2573.863,2905.584 				"/>
			</g>
			<g>
				<path style="fill:#FFFFFF;" d="M1463.188,1603.085c-15.994,8.525-31.409,27.826-27.905,49.636
					c3.555,22.128,24.957,36.688,41.831,41.703c23.723,7.052,31.539-6.835,57.058-4.063c38.617,4.194,68.658,41.243,81.2,68.344
					c12.326,26.635,2.714,32.787,10.678,63.305c13.987,53.6,57.344,87.22,98.641,119.242c34.385,26.662,86.806,59.132,96.227,50.001
					c3.373-3.269,0.336-10.982-1.497-15.634c-7.271-18.462-23.872-23.001-46.506-40.599c-16.1-12.517-36.423-28.319-33.13-40.501
					c3.244-12,28.985-18.932,48.155-13.227c19.196,5.713,29.507,23.416,34.475,31.945c4.246,7.291,3.542,16.628,7.479,17.168
					c2.717,0.373,5.738-3.363,7.101-6.601c3.507-8.334-2.624-16.581-4.858-23.14c-5.144-15.105,7.045-31.017,19.169-46.844
					c20.276-26.469,32.149-26.389,63.479-56.96c20.95-20.442,31.433-30.958,32.581-46.19c1.968-26.118-21.694-46.283-25.661-49.664
					c-19.136-16.308-51.6-28.022-65.425-17.07c-12.405,9.828,0.654,29.612-13.931,43.99c-10.199,10.054-28.012,11.66-41.904,7.327
					c-19.625-6.122-30.908-23.933-32.04-39.785c-0.223-3.126-1.255-17.577,9.021-27.221c2.929-2.749,10.055-8.183,34.01-8.4
					c33.65-0.305,40.662,10.248,60.743,6.647c16.737-3.001,36.917-14.828,36.673-27.105c-0.286-14.376-28.337-16.736-60.529-50.174
					c-12.532-13.016-22.727-23.903-21.917-37.656c1.141-19.359,23.457-33.871,27.886-36.75c17.364-11.29,32.77-20.419,32.77-20.419
					c4.337-2.57,10.634-6.247,9.91-9.974c-0.476-2.454-3.861-4.247-9.91-6.058c-19.109-5.72-33.764-3.259-33.764-3.259
					c-22.747,3.82-29.995,13.96-57.853,27.01c-11.255,5.273-30.247,14.17-56.161,18.688c-29.581,5.158-39.754-0.337-54.443,9.343
					c-14.173,9.34-9.703,17.74-24.287,32.448c-15.278,15.408-33.953,20.086-63.002,27.363c-11.133,2.789-33.631,7.733-64.405,9.272
					C1489.267,1601.416,1479.985,1594.131,1463.188,1603.085z"/>
				<path style="fill:#FFFFFF;" d="M1945.393,1492.949c-30.855,6.51-57.7,12.174-63.292,29.54
					c-2.908,9.029-0.204,21.653,7.932,28.592c16.178,13.795,40.586-6.174,58.317,5.923c9.48,6.468,5.891,14.492,16.743,59.806
					c7.238,30.226,13.181,44.798,24.573,58.078c6.456,7.527,15.51,18.082,24.514,16.701c13.333-2.045,8.284-27.481,29.341-44.965
					c7.388-6.135,8.736-3.601,43.856-18.177c20.482-8.501,30.754-12.822,33.013-16.605c11.548-19.337-19.125-44.375-6.788-67.394
					c2.326-4.34,2.647-2.008,18.414-19.807c18.115-20.449,17.889-23.757,17.416-25.396c-2.011-6.958-15.48-8.005-50.391-13.221
					c-58.008-8.665-62.712-12.022-79.965-8.87c-11.453,2.092-14.503,4.505-39.233,9.662
					C1960.526,1490.844,1958.367,1490.212,1945.393,1492.949z"/>
				<path style="fill:#FFFFFF;" d="M1867.211,1991.99c-17.098,11.527-20.499,31.99-21.877,40.283
					c-3.41,20.518,2.979,34.081,14.921,68.193c14.505,41.431,21.75,62.126,22.838,73.814c1.688,18.142-1.83,21.265-15.882,92.391
					c-10.454,52.913-11.571,66.688-1.987,76.459c14.094,14.369,44.393,13.016,45.603,9.379c0.59-1.771-5.949-3.357-10.886-9.41
					c-10.997-13.48-3.077-35.631-0.99-41.469c8.234-23.031,23.964-32.777,49.4-55.421c30.005-26.711,49.539-44.1,63.871-70.062
					c7.122-12.901,22.301-41.329,17.618-78.545c-0.943-7.499-4.891-32.829-24.477-58.404c-25.437-33.215-59.78-44.044-69.833-47.061
					C1915.958,1986.263,1888.104,1977.905,1867.211,1991.99z"/>
				<path style="fill:#FFFFFF;" d="M2158.128,1867.245c-11.044,19.739-23.26,41.574-28.048,61.823
					c-4.287,18.127-8.381,59.348,13.55,75.705c19.834,14.794,42.702-4.404,70.366,12.231c14.106,8.482,20.321,20.79,27.821,35.642
					c16.117,31.918,8.43,49.298,15.317,90.053c3.237,19.154,13.518,79.996,39.145,84.478c21.363,3.736,44.605-33.254,48.486-39.43
					c10.307-16.403,14.276-33.536,21.791-67.112c10.13-45.264,6.362-51.675,17.02-64.27c13.714-16.204,30.317-17.831,33.958-33.557
					c2.675-11.555-3.705-22.109-7.536-28.612c-14.157-24.03-33.902-21.777-47.228-45c-7.663-13.353-9.736-29.088-6.629-30.542
					c2.777-1.3,10.47,8.45,14.2,13.179c11.458,14.523,10.056,19.673,17.015,27.02c14.066,14.85,37.809,12.829,39.59,12.653
					c10.885-1.078,30.477-6.652,32.875-18.688c1.846-9.267-7.091-19.38-17.833-31.537c-8.67-9.811-15.156-14.08-14.101-15.896
					c1.07-1.84,8.778,0.74,29.121,7.939c22.072,7.812,33.091,11.711,34.647,12.606c7.421,4.266,13.742,9.959,34.529,43.643
					c21.052,34.112,28.708,51.192,33.483,49.868c2.376-0.658,1.965-5.299,3.713-20.93c2.615-23.379,4.049-35.238,10.205-43.61
					c5.193-7.061,16.298-16.551,27.78-14.974c6.887,0.946,15.155,11.461,31.391,32.425c15.994,20.651,21.385,27.667,32.212,33.247
					c5.682,2.928,15.857,8.171,23.863,4.006c8.886-4.622,11.934-19.191,8.247-29.781c-4.462-12.817-16.86-14.268-16.5-22.055
					c0.512-11.105,26.163-17.928,28.401-18.504c16.536-4.255,20.765,0.998,29.233-3.961c12.568-7.361,17.744-27.432,14.584-43.103
					c-3.254-16.138-14.277-22.297-10.937-29.176c2.81-5.785,11.633-3.534,29.137-7.455c12.99-2.91,32.164-7.206,42.641-21.527
					c6.237-8.524,7.337-17.791,9.049-32.203c0.285-2.398,1.522-13.484,0-28.823c-2.108-21.241-6.75-22.846-4.524-28.954
					c4.884-13.4,28.411-8.974,73.029-20.313c25.503-6.481,43.907-14.561,45.708-11.155c2.258,4.274-27.541,15.457-29.552,37.653
					c-1.523,16.818,13.433,34.264,19.711,32.827c5.187-1.188,1.441-14.575,10.735-33.736c3.421-7.055,8.611-17.755,19.65-24.479
					c13.241-8.064,21.049-1.965,32.96-10.612c9.527-6.916,7.126-12.707,15.107-20.06c18.08-16.658,48.528-3.647,50.485-9.96
					c1.809-5.835-21.666-25.104-52.261-30.261c-27.228-4.588-31.422,6.814-62.366,5.94c-17.586-0.497-38.901-8.121-81.667-23.419
					c-24.178-8.648-36.783-14.428-58.748-16.46c-15.3-1.416-15.759,0.777-31.777-1.123c-18.18-2.156-40.719-4.829-58.369-20.177
					c-13.853-12.046-9.622-18.786-21.06-26.152c-18.473-11.897-43.779-3.519-65.292,3.92c-22.865,7.907-39.107,17.936-66.647,34.942
					c-32.053,19.793-42.797,29.804-60.548,27.155c-13.268-1.979-15.984-8.867-30.879-9.297
					c-12.056-0.348-15.838,3.999-40.377,13.314c-23.748,9.015-35.853,13.486-46.209,11.34
					c-16.047-3.326-16.665-14.173-34.083-21.413c-18.585-7.725-36.325-3.054-58.013,2.657
					c-26.802,7.057-53.191,14.006-66.021,35.819c-13.594,23.113-0.988,44.228-16.331,54.269c-12.736,8.335-25.783-3.33-37.565,5.417
					c-14.163,10.514-9.947,38.212-7.723,52.826c4.382,28.787,15.27,36.113,11.582,56.114
					C2170.008,1848.5,2167.114,1851.185,2158.128,1867.245z"/>
				<path style="fill:#FFFFFF;" d="M2417.533,2111.956c-6.634-0.739-17.74,24.973-15.078,49.507
					c0.158,1.459,2.347,20.49,8.484,21.213c5.702,0.672,11.636-14.837,12.242-16.453c0.996-2.656,3.987-11.33,2.823-25.7
					C2425.679,2136.504,2423.746,2112.648,2417.533,2111.956z"/>
				<path style="fill:#FFFFFF;" d="M2654.856,2055.397c-0.485,1.123,1.386,3.074,6.596,7.228
					c13.759,10.97,20.631,16.449,31.962,20.485c9.783,3.486,34.106,9.902,39.323,1.378c3.344-5.465-1.459-16.578-9.132-21.834
					c-8.177-5.603-14.325-0.933-33.857-2.256C2669.496,2059.027,2656.042,2052.652,2654.856,2055.397z"/>
				<path style="fill:#FFFFFF;" d="M2723.605,2009.247c-4.034,0.568-3.006,8.418-10.968,25.187
					c-3.716,7.826-5.733,9.892-4.574,12.617c2.556,6.008,17.943,9.102,25.586,2.164c7.134-6.477,3.881-18.391,2.738-22.578
					C2734.224,2018.716,2728.33,2008.582,2723.605,2009.247z"/>
				<path style="fill:#FFFFFF;" d="M2805.486,2076.345c3.036,4.406,8.188,9.879,20.818,15.568
					c4.406,1.985,36.929,16.637,45.107,5.918c3.33-4.365,1.698-11.716-0.901-16.184c-4.021-6.916-11.368-8.663-23.431-11.981
					c-35.954-9.888-44.097-14.544-47.03-10.521C2796.752,2063.666,2803.829,2073.938,2805.486,2076.345z"/>
				<path style="fill:#FFFFFF;" d="M2744.594,1977.929c-4.303,1.24-4.029,20.666,3.646,36.226
					c3.99,8.092,11.257,17.722,14.57,16.488c3.582-1.335,1.763-15.082-0.91-24.407
					C2757.928,1992.377,2748.762,1976.729,2744.594,1977.929z"/>
				<path style="fill:#FFFFFF;" d="M2779.176,1887.357c0.068-4.539,11.45-3.195,26.311-12.044
					c10.322-6.147,25.442-19.07,33.469-37.045c1.626-3.643,3.302-8.253,4.514-7.988c1.829,0.401,2.054,11.78,0,21.595
					c-3.796,18.136-16.062,34.195-31.642,41.605c-6.113,2.908-10.678,3.505-14.498,3.294
					C2788.836,1896.304,2779.112,1891.564,2779.176,1887.357z"/>
				<path style="fill:#FFFFFF;" d="M2748.24,2151.576c-19.932,16.855-30.819,13.639-33.774,23.254
					c-3.349,10.895,10.334,15.964,12.792,38.107c1.528,13.763-2.683,21.477,0.914,23.534c5.45,3.118,14.447-14.996,35.548-21.525
					c1.637-0.506,23.732-7.008,41.766,3.834c10.473,6.296,9.154,12.176,26.242,27.148c10.932,9.579,16.61,14.415,23.468,13.581
					c11.306-1.374,17.691-17.173,21.614-26.877c3.247-8.033,10.687-26.441,5.396-48.468c-2.291-9.54-3.98-7.314-35.127-51.526
					c-8.615-12.228-12.074-17.491-19.87-20.904c-15.921-6.969-33.38,1.016-36.23,2.32c-6.253,2.86-11.736,7.845-22.71,17.824
					C2755.296,2143.675,2756.104,2144.927,2748.24,2151.576z"/>
			</g>
			<g>
				<g>
					<path style="fill:#FFFFFF;" d="M1992.063,2773.942l-456.286,9.886c-11.712,0.254-21.249-9.063-21.249-20.767V2463.59
						c0-11.711,9.537-21.288,21.249-21.354l27.822-0.154v-19.609c0-13.461,10.946-24.456,24.382-24.502l85.994-0.3
						c13.31-0.046,24.128,10.803,24.128,24.179v19.484l293.96-1.634c11.202-0.062,20.305,9.188,20.305,20.624v292.448
						C2012.368,2764.202,2003.265,2773.699,1992.063,2773.942z M1535.777,2456.865c-3.632,0.023-6.589,2.999-6.589,6.629v299.264
						c0,3.629,2.958,6.518,6.589,6.442l456.286-9.571c3.477-0.074,6.305-3.018,6.305-6.568v-292.645
						c0-3.549-2.829-6.424-6.305-6.402l-308.387,1.926v-34.024c0-5.376-4.351-9.734-9.701-9.712l-85.994,0.358
						c-5.397,0.022-9.789,4.439-9.789,9.842v34.195L1535.777,2456.865z"/>
					<path style="fill:#FFFFFF;" d="M1801.52,2913.139l-70.354,1.978v-71.186l70.354-1.74V2913.139z M1745.528,2900.229
						l41.706-1.144v-42.087l-41.706,1.06V2900.229z"/>
					<polygon style="fill:#FFFFFF;" points="1769.982,2850.205 1762.82,2850.384 1762.82,2771.673 1769.982,2771.521 					"/>
					<polygon style="fill:#FFFFFF;" points="1738.349,2882.953 1531.823,2888.445 1531.823,2881.13 1738.349,2875.708 					"/>
					<polygon style="fill:#FFFFFF;" points="1995.848,2876.104 1794.379,2881.463 1794.379,2874.238 1995.848,2868.949 					"/>
				</g>
			</g>
			<g>
				<polygon style="fill:#FFFFFF;" points="1355.054,2757.061 716.808,2769.974 716.808,2377.189 723.137,2377.173 
					723.137,2763.758 1355.054,2751.148 				"/>
				<g>
					<path style="fill:#FFFFFF;" d="M1168.916,2532.679c-34.139,3.046-39.231-19.501-73.124-20.241
						c-58.049-1.266-72.376,64.016-129.167,65.845c-46.865,1.508-58.729-42.097-105.697-35.067
						c-35.213,5.271-42.174,31.747-76.803,37.195c-6.943,1.092-13.786,1.133-20.467,0.38v155.958l550.031-10.32v-260.352
						c-27.902,3.447-48.379,11.658-63.099,19.762C1214.986,2505.439,1203.11,2529.629,1168.916,2532.679z"/>
				</g>
			</g>
			<polygon style="fill:#FFFFFF;" points="1355.053,2269.512 716.807,2267.875 716.807,2260.279 1355.053,2262.137 			"/>
			<g>
				<polygon style="fill:#FFFFFF;" points="2720.507,2732.198 2162.225,2743.57 2162.225,2376.563 2167.75,2376.549 
					2167.75,2737.77 2720.507,2726.663 				"/>
				<polygon style="fill:#FFFFFF;" points="2240.523,2639.75 2236.613,2635.835 2352.245,2512.542 2464.49,2552.028 
					2573.91,2452.687 2682.824,2510.217 2680.445,2515.179 2574.672,2459.347 2465.644,2558.365 2353.708,2519.024 				"/>
				
					<linearGradient id="SVGID_00000087398417462384554790000005234212351583687568_" gradientUnits="userSpaceOnUse" x1="2336.9543" y1="2331.6538" x2="2064.4976" y2="3179.2966">
					<stop  offset="0" style="stop-color:#FF9085"/>
					<stop  offset="1" style="stop-color:#FB6FBB"/>
				</linearGradient>
				<path style="opacity:0.7;fill:url(#SVGID_00000087398417462384554790000005234212351583687568_);" d="M2257.47,2637.506
					c0,10.787-8.458,19.669-18.901,19.839c-10.453,0.17-18.935-8.453-18.935-19.26c0-10.807,8.482-19.689,18.935-19.839
					C2249.011,2618.096,2257.47,2626.719,2257.47,2637.506z"/>
				
					<linearGradient id="SVGID_00000130628790714728285370000014003821161630016697_" gradientUnits="userSpaceOnUse" x1="2404.5332" y1="2355.3303" x2="2134.1899" y2="3196.3979">
					<stop  offset="0" style="stop-color:#FF9085"/>
					<stop  offset="1" style="stop-color:#FB6FBB"/>
				</linearGradient>
				<path style="opacity:0.7;fill:url(#SVGID_00000130628790714728285370000014003821161630016697_);" d="M2371.667,2515.609
					c0,10.727-8.364,19.509-18.691,19.616c-10.337,0.107-18.725-8.518-18.725-19.265c0-10.747,8.388-19.529,18.725-19.616
					C2363.302,2496.256,2371.667,2504.881,2371.667,2515.609z"/>
				
					<linearGradient id="SVGID_00000090293066066646785110000014801510726060977597_" gradientUnits="userSpaceOnUse" x1="2517.2256" y1="2392.8774" x2="2248.3516" y2="3229.374">
					<stop  offset="0" style="stop-color:#FF9085"/>
					<stop  offset="1" style="stop-color:#FB6FBB"/>
				</linearGradient>
				<path style="opacity:0.7;fill:url(#SVGID_00000090293066066646785110000014801510726060977597_);" d="M2483.554,2554.988
					c0,10.668-8.272,19.418-18.486,19.544c-10.224,0.126-18.52-8.436-18.52-19.123s8.295-19.438,18.52-19.545
					C2475.281,2535.757,2483.554,2544.32,2483.554,2554.988z"/>
				
					<linearGradient id="SVGID_00000055686767063673168700000011295081844061776306_" gradientUnits="userSpaceOnUse" x1="2586.9578" y1="2416.5547" x2="2320.0171" y2="3247.0366">
					<stop  offset="0" style="stop-color:#FF9085"/>
					<stop  offset="1" style="stop-color:#FB6FBB"/>
				</linearGradient>
				<path style="opacity:0.7;fill:url(#SVGID_00000055686767063673168700000011295081844061776306_);" d="M2592.578,2455.897
					c0,10.611-8.184,19.274-18.288,19.349c-10.114,0.076-18.32-8.479-18.32-19.11c0-10.63,8.206-19.293,18.32-19.35
					C2584.394,2436.73,2592.578,2445.287,2592.578,2455.897z"/>
				
					<linearGradient id="SVGID_00000023976828115324024560000010672876301436878271_" gradientUnits="userSpaceOnUse" x1="2700.3811" y1="2454.3276" x2="2434.7866" y2="3280.6208">
					<stop  offset="0" style="stop-color:#FF9085"/>
					<stop  offset="1" style="stop-color:#FB6FBB"/>
				</linearGradient>
				<path style="opacity:0.7;fill:url(#SVGID_00000023976828115324024560000010672876301436878271_);" d="M2699.729,2512.529
					c0,10.554-8.096,19.194-18.093,19.297c-10.006,0.104-18.126-8.384-18.126-18.957c0-10.573,8.12-19.213,18.126-19.297
					C2691.632,2493.487,2699.729,2501.974,2699.729,2512.529z"/>
			</g>
			<g>
				<path style="fill:#FFFFFF;" d="M2929.964,2777.711l-21.778,0.499c-15.567,0.356-28.252-12.894-28.252-29.539v-25.997
					c0-13.54-7.177-25.434-18.297-30.314c-59.793-26.242-95.28-90.601-88.007-159.97c7.528-71.781,61.862-129.814,128.808-138.003
					c41.955-5.109,82.094,8.381,113.054,37.972c30.44,29.096,47.858,70.871,47.858,114.683c0,61.668-34.126,117.834-87.177,143.204
					c-10.99,5.259-18.095,17.374-18.095,30.867v25.888C2958.078,2763.581,2945.477,2777.356,2929.964,2777.711z M2919.27,2407
					c-5.095,0.021-10.243,0.35-15.419,0.986c-60.996,7.496-110.475,60.4-117.332,125.788c-6.623,63.251,25.7,121.942,80.192,145.892
					c15.837,6.961,26.057,23.743,26.057,42.75v25.98c0,9.086,6.918,16.32,15.417,16.131l21.778-0.484
					c8.473-0.188,15.363-7.709,15.363-16.77v-25.905c0-18.97,10.146-36.072,25.833-43.563
					c48.417-23.119,79.574-74.352,79.574-130.622c0-39.98-15.903-78.099-43.696-104.636
					C2982.602,2419.221,2951.903,2406.863,2919.27,2407z"/>
				<path style="fill:#FFFFFF;" d="M2953.609,2837.336l-54.413,1.41c-1.772,0.046-3.206-1.448-3.206-3.339s1.434-3.459,3.206-3.504
					l48.037-1.229v-5.654l-62.81,1.589v-10.949l62.81-12.542v-4.813l-56.394,1.35v4.065c0,1.892-1.434,3.458-3.208,3.501
					c-1.774,0.043-3.209-1.454-3.209-3.347v-10.915l69.187-1.632v17.436l-52.958,10.592l52.958-1.321V2837.336z"/>
				<path style="fill:#FFFFFF;" d="M2919.076,2878.298c-16.085,0.449-29.189-13.179-29.189-30.384c0-1.892,1.435-3.461,3.208-3.508
					c1.772-0.046,3.206,1.447,3.206,3.339c0,13.422,10.225,24.062,22.776,23.716c12.539-0.346,22.727-11.525,22.727-24.916
					c0-1.887,1.427-3.452,3.19-3.499c1.763-0.046,3.189,1.443,3.189,3.33C2948.183,2863.531,2935.135,2877.85,2919.076,2878.298z"/>
				<path style="fill:#FFFFFF;" d="M2919.076,2755.359c-0.009,0-0.019,0.001-0.031,0.001c-1.543,0.021-2.855-1.146-3.121-2.763
					l-25.99-159.241c-0.304-1.861,0.865-3.649,2.613-3.993c1.741-0.431,3.4,0.87,3.707,2.731l22.988,140.901l25.496-141.616
					c0.33-1.852,2.024-3.041,3.735-2.757c1.728,0.337,2.861,2.108,2.525,3.966l-28.783,159.932
					C2921.924,2754.136,2920.607,2755.326,2919.076,2755.359z"/>
			</g>
		</g>
		<g>
			
				<linearGradient id="SVGID_00000026136391163647762530000010986736755187212446_" gradientUnits="userSpaceOnUse" x1="2427.4148" y1="1324.2463" x2="2647.97" y2="1762.6837">
				<stop  offset="0" style="stop-color:#AA80F9"/>
				<stop  offset="0.9964" style="stop-color:#6165D7"/>
			</linearGradient>
			<path style="fill:url(#SVGID_00000026136391163647762530000010986736755187212446_);" d="M1920.893,1732.803l156.692-102.317
				v-501.56c0-15.671,13.627-27.78,30.344-26.995l925.723,43.502c14.688,0.69,26.615,13.167,26.615,27.815v538.611
				c0,14.648-11.927,26.506-26.615,26.433L1920.893,1732.803z"/>
			<g>
				<path style="fill:#FFFFFF;" d="M2673.038,1432.5c0,118.47-99.36,213.404-223.825,212.019
					c-126.612-1.409-230.865-101.629-230.865-223.825c0-122.196,104.253-217.002,230.865-211.836
					C2573.677,1213.937,2673.038,1314.03,2673.038,1432.5z"/>
				<path style="opacity:0.35;fill:#FFFFFF;" d="M2660.362,1425.795c-2.725-85.48-60.012-159.682-140.031-190.059
					c-22.175-8.419-46.095-13.523-71.117-14.523c-119.372-4.77-217.577,84.664-217.577,199.827
					c0,115.163,98.205,209.695,217.577,211.124c117.462,1.406,211.313-88.141,211.313-199.989
					C2660.526,1430.037,2660.429,1427.919,2660.362,1425.795z"/>
				
					<linearGradient id="SVGID_00000161614020184850868430000007956278271271482511_" gradientUnits="userSpaceOnUse" x1="2468.4011" y1="1340.9879" x2="2129.8767" y2="2637.9302">
					<stop  offset="0.0036" style="stop-color:#E38DDD"/>
					<stop  offset="1" style="stop-color:#9571F6"/>
				</linearGradient>
				<path style="fill:url(#SVGID_00000161614020184850868430000007956278271271482511_);" d="M2660.362,1425.795
					c-2.725-85.48-60.012-159.682-140.031-190.059c-22.175-8.419-46.095-13.523-71.117-14.523
					c-119.372-4.77-217.577,84.664-217.577,199.827c0,115.163,98.205,209.695,217.577,211.124
					c117.462,1.406,211.313-88.141,211.313-199.989C2660.526,1430.037,2660.429,1427.919,2660.362,1425.795z"/>
				<g>
					<path style="fill:#FFFFFF;" d="M2660.362,1425.795c-2.725-85.48-60.012-159.682-140.031-190.059l-71.117,190.953
						L2660.362,1425.795z"/>
				</g>
			</g>
			<g>
				<polygon style="fill:#FFFFFF;" points="2984.15,1253.51 2745.586,1244.161 2745.586,1220.951 2984.15,1230.685 				"/>
				<polygon style="fill:#FFFFFF;" points="2984.15,1299.16 2745.586,1290.582 2745.586,1267.371 2984.15,1276.335 				"/>
				<polygon style="fill:#FFFFFF;" points="2984.15,1371.06 2745.586,1363.694 2745.586,1340.483 2984.15,1348.235 				"/>
				<polygon style="fill:#FFFFFF;" points="2984.15,1416.71 2745.586,1410.114 2745.586,1386.904 2984.15,1393.885 				"/>
				<polygon style="fill:#FFFFFF;" points="2984.15,1488.61 2745.586,1483.226 2745.586,1460.016 2984.15,1465.785 				"/>
				<polygon style="fill:#FFFFFF;" points="2984.15,1534.261 2745.586,1529.647 2745.586,1506.436 2984.15,1511.435 				"/>
			</g>
		</g>
		<g>
			<g>
				
					<linearGradient id="SVGID_00000042727948733918994660000003562664519348044223_" gradientUnits="userSpaceOnUse" x1="1934.0646" y1="1716.4291" x2="1563.254" y2="2161.4014">
					<stop  offset="0" style="stop-color:#311944"/>
					<stop  offset="1" style="stop-color:#A03976"/>
				</linearGradient>
				<polygon style="fill:url(#SVGID_00000042727948733918994660000003562664519348044223_);" points="1572.98,2076.886 
					1948.158,1769.055 1950.119,1770.009 1577.896,2085.326 				"/>
				
					<linearGradient id="SVGID_00000180353532929903821150000002354753075516751494_" gradientUnits="userSpaceOnUse" x1="1626.0336" y1="2036.3882" x2="1439.6268" y2="2206.7595">
					<stop  offset="0" style="stop-color:#FFC444"/>
					<stop  offset="0.9964" style="stop-color:#F36F56"/>
				</linearGradient>
				<path style="fill:url(#SVGID_00000180353532929903821150000002354753075516751494_);" d="M1550.062,2097.355l14.688-16.043
					l7.646-17.688c1.321-3.056,3.424-5.709,6.099-7.692l4.389-3.256c2.517-1.867,5.569-2.875,8.704-2.875h14.403
					c0,0-2.51,4.695-6.597,5.414c-4.088,0.718-12.633,10.364-12.633,10.364l-1.162,11.308l16.341-11.929l17.418-20.019v11.114
					c0,3.801-1.368,7.475-3.853,10.351l-14.13,16.351c-3.489,4.037-8.289,6.715-13.557,7.563l-3.485,0.561
					c-7.249,1.167-13.699,5.259-17.843,11.319l-9.936,14.534L1550.062,2097.355z"/>
			</g>
			
				<linearGradient id="SVGID_00000152256816145979472250000015369470168300033411_" gradientUnits="userSpaceOnUse" x1="718.9326" y1="2769.0354" x2="763.0287" y2="2474.3923">
				<stop  offset="0" style="stop-color:#FFC444"/>
				<stop  offset="0.9964" style="stop-color:#F36F56"/>
			</linearGradient>
			<path style="fill:url(#SVGID_00000152256816145979472250000015369470168300033411_);" d="M757.17,2630.373
				c0,0-4.072,19.147-7.617,35.274c-3.544,16.127-17.724,28.495-23.928,41.365c-6.203,12.87-8.99-2.196-10.698-11.501
				c-1.709-9.305,0-28.518,7.677-35.094c7.678-6.577,13.514-12.319,13.142-13.647c-0.372-1.329,4.93-23.485,4.93-23.485
				L757.17,2630.373z"/>
			<g>
				
					<linearGradient id="SVGID_00000157274429362872775460000001680232451726613157_" gradientUnits="userSpaceOnUse" x1="959.1823" y1="3284.0259" x2="923.1036" y2="3071.5615">
					<stop  offset="0" style="stop-color:#AA80F9"/>
					<stop  offset="0.9964" style="stop-color:#6165D7"/>
				</linearGradient>
				<path style="fill:url(#SVGID_00000157274429362872775460000001680232451726613157_);" d="M927.362,3205.984
					c-0.968-3.989-0.318-9.325,3.159-12.903c4.687-4.823,12.536-4.416,17.463-2.184c2.871,1.3,5.104,3.379,12.992,19.829
					c8.338,17.385,8.302,20.188,6.96,21.774c-2.728,3.226-10.377,0.846-12.025,0.333c-5.482-1.703-6.821-4.302-18.112-14.877
					C930.143,3210.788,928.244,3209.625,927.362,3205.984z"/>
				
					<linearGradient id="SVGID_00000104670217111449728460000014311051813520570558_" gradientUnits="userSpaceOnUse" x1="937.8668" y1="3201.5518" x2="949.8932" y2="3075.9426">
					<stop  offset="0" style="stop-color:#FFC444"/>
					<stop  offset="0.9964" style="stop-color:#F36F56"/>
				</linearGradient>
				<path style="fill:url(#SVGID_00000104670217111449728460000014311051813520570558_);" d="M932.693,3178.81l1.911,20.151
					c4.589,2.386,7.439,2.193,8.939,0l3.852-20.151H932.693z"/>
				
					<linearGradient id="SVGID_00000063597029124664044640000015736582755416958131_" gradientUnits="userSpaceOnUse" x1="1156.0886" y1="3250.5881" x2="1120.0104" y2="3038.126">
					<stop  offset="0" style="stop-color:#AA80F9"/>
					<stop  offset="0.9964" style="stop-color:#6165D7"/>
				</linearGradient>
				<path style="fill:url(#SVGID_00000063597029124664044640000015736582755416958131_);" d="M1125.382,3203.467
					c-2.697-3.094-4.579-8.129-3.143-12.907c1.937-6.44,9.09-9.697,14.491-9.987c3.147-0.17,6.087,0.646,20.669,11.608
					c15.412,11.586,16.672,14.09,16.213,16.116c-0.934,4.12-8.82,5.533-10.52,5.838c-5.649,1.015-8.036-0.674-22.93-4.854
					C1130.065,3206.447,1127.843,3206.292,1125.382,3203.467z"/>
				
					<linearGradient id="SVGID_00000102517997355711534970000010047525063958066871_" gradientUnits="userSpaceOnUse" x1="1129.2778" y1="3219.8772" x2="1141.3037" y2="3094.2732">
					<stop  offset="0" style="stop-color:#FFC444"/>
					<stop  offset="0.9964" style="stop-color:#F36F56"/>
				</linearGradient>
				<path style="fill:url(#SVGID_00000102517997355711534970000010047525063958066871_);" d="M1126.72,3169.815l1.912,20.15
					c4.589,2.386,7.439,2.193,8.939,0l3.852-20.15H1126.72z"/>
				
					<linearGradient id="SVGID_00000142878265267172243980000009541619356859414971_" gradientUnits="userSpaceOnUse" x1="973.9236" y1="3185.1563" x2="1160.9983" y2="2482.2898">
					<stop  offset="0" style="stop-color:#444B8C"/>
					<stop  offset="0.9964" style="stop-color:#26264F"/>
				</linearGradient>
				<path style="fill:url(#SVGID_00000142878265267172243980000009541619356859414971_);" d="M927.536,3182.754
					c7.25,0.438,14.5,0.873,21.751,1.311c15.351-74.882,32.207-151.526,50.719-229.794c20.29-85.786,41.489-168.947,63.337-249.416
					c6.925,30.629,13.778,66.454,19.177,106.726c8.014,59.774,9.635,105.574,10.022,118.258c1.977,64.84-3.674,72.498-1.002,112.98
					c2.1,31.828,8.994,78.59,32.07,135.386c6.911-0.423,13.823-0.838,20.735-1.257c15.128-73.175,28.09-162.1,31.753-263.669
					c4.492-124.557-6.289-232.48-20.418-317.596c-62.804,1.95-125.608,3.904-188.411,5.854
					c-19.604,43.771-28.536,81.2-33.063,107.519c-9.099,52.893-3.519,78.993-10.365,169.108c-3.539,46.57-6.12,53.957-8.685,84.888
					C910.905,3014.273,910.167,3088.251,927.536,3182.754z"/>
				
					<linearGradient id="SVGID_00000085236751453695111750000014248012537199421337_" gradientUnits="userSpaceOnUse" x1="912.3265" y1="3168.7615" x2="1099.4014" y2="2465.8953">
					<stop  offset="0" style="stop-color:#444B8C"/>
					<stop  offset="0.9964" style="stop-color:#26264F"/>
				</linearGradient>
				<path style="opacity:0.3;fill:url(#SVGID_00000085236751453695111750000014248012537199421337_);" d="M969.272,3004
					c5.73-60.894-16.241-59.638-6.013-112.245c9.412-48.402,29.372-56.467,44.096-118.258c11.818-49.596,2.792-60.476,12.026-82.179
					c11.41-26.816,44.738-56.091,140.536-68.529c-1.373-9.254-2.781-18.329-4.238-27.106c-62.804,1.95-125.607,3.904-188.411,5.854
					c-19.604,43.771-28.536,81.2-33.063,107.519c-9.098,52.893-3.519,78.993-10.365,169.108c-3.539,46.57-6.119,53.957-8.685,84.888
					c-4.25,51.221-4.988,125.2,12.382,219.703c7.25,0.438,14.501,0.873,21.751,1.311c0.446-2.176,0.923-4.388,1.372-6.569
					c-3.66-5.935-6.988-12.602-9.449-20.161C925.309,3108.478,962.112,3080.104,969.272,3004z"/>
			</g>
			<g>
				
					<linearGradient id="SVGID_00000077287223482451254830000009568257290526267825_" gradientUnits="userSpaceOnUse" x1="1314.7006" y1="2022.1898" x2="897.7909" y2="2573.3933">
					<stop  offset="0" style="stop-color:#AA80F9"/>
					<stop  offset="0.9964" style="stop-color:#6165D7"/>
				</linearGradient>
				<path style="fill:url(#SVGID_00000077287223482451254830000009568257290526267825_);" d="M731.754,2634.194
					c9.353,1.671,18.708,3.339,28.061,5.01c5.778-17.499,14.162-43.881,23.195-76.365c10.328-37.144,15.631-61.149,17.894-69.954
					c9.002-35.03,35.328-84.18,112.918-144.009c-0.772,38.063-1.369,69.378-1.771,90.893
					c-3.227,172.623-3.041,203.957,19.889,221.17c19.937,14.966,30.95-0.352,121.518,1.37c82.597,1.57,99.983,14.813,120.957-0.352
					c34.039-24.613,20.818-83.044,21.351-156.044c0.44-60.241,10.356-145.486,54.118-249.544
					c32.221,3.127,86.101,3.981,147.322-17.038c95.078-32.642,149.106-97.854,169.369-125.273
					c-6.681-9.019-13.362-18.039-20.044-27.059c-34.188,14.923-87.026,34.622-153.737,45.524
					c-115.645,18.897-168.811-5.668-276.201-1.429c-61.85,2.443-188.173,7.43-273.598,72.158
					C685.901,2322.282,726.118,2598.639,731.754,2634.194z"/>
				
					<linearGradient id="SVGID_00000127727144339953281930000000799732828921350298_" gradientUnits="userSpaceOnUse" x1="1325.9702" y1="2030.7139" x2="909.0601" y2="2581.918">
					<stop  offset="0" style="stop-color:#AA80F9"/>
					<stop  offset="0.9964" style="stop-color:#6165D7"/>
				</linearGradient>
				<path style="opacity:0.3;fill:url(#SVGID_00000127727144339953281930000000799732828921350298_);" d="M1031.408,2614.15
					c-4.781-26.664,9.579-37.891,2.004-68.149c-10.689-42.698-44.967-43.027-53.116-79.172c-7.77-34.47,21.005-44.817,28.062-99.217
					c5.187-39.993-2.139-97.807-29.063-107.234c-33.495-11.725-82.724,56.553-88.193,64.14
					c-18.925,26.249-29.923,53.354-36.358,77.575c15.323-16.61,34.653-34.384,59.08-53.217c-0.772,38.063-1.368,69.378-1.771,90.893
					c-3.227,172.623-3.041,203.957,19.889,221.17c19.937,14.966,30.95-0.352,121.517,1.37c2.589,0.051,4.93,0.141,7.393,0.212
					C1041.286,2644.61,1033.863,2627.84,1031.408,2614.15z"/>
			</g>
			<g>
				
					<linearGradient id="SVGID_00000015329681522631500840000015825950680868502699_" gradientUnits="userSpaceOnUse" x1="-605.5712" y1="2713.0659" x2="-605.5712" y2="2597.3125" gradientTransform="matrix(-0.827 0.5622 0.5622 0.827 -938.6846 289.0357)">
					<stop  offset="0" style="stop-color:#FFC444"/>
					<stop  offset="0.9964" style="stop-color:#F36F56"/>
				</linearGradient>
				<path style="fill:url(#SVGID_00000015329681522631500840000015825950680868502699_);" d="M1059.124,2081.695
					c0,0-2.796,22.24-11.064,38.4c-7.472,14.604-41.166,21.462-48.112,24.299c-6.946,2.837,11.447,14.231,30.556,17.711
					c19.108,3.481,74.473,3.515,84.974-2.993c10.502-6.508-7.428-7.392-20.773-13.541c-13.345-6.149-19.141-33.677-15.735-45.688
					C1082.373,2087.872,1059.124,2081.695,1059.124,2081.695z"/>
				<g>
					
						<linearGradient id="SVGID_00000154406317051595811380000016885794547836859563_" gradientUnits="userSpaceOnUse" x1="-2832.3931" y1="1243.2766" x2="-2870.6345" y2="1146.1505" gradientTransform="matrix(-0.995 0.0996 0.0996 0.995 -1895.803 1193.7489)">
						<stop  offset="0" style="stop-color:#444B8C"/>
						<stop  offset="0.9964" style="stop-color:#3E4177"/>
					</linearGradient>
					<path style="fill:url(#SVGID_00000154406317051595811380000016885794547836859563_);" d="M1094.674,2073.442
						c4.534-7.668,1.643-21.568-7.238-27.549c-6.59-4.438-14.144-2.942-19.648-1.851c-2.548,0.505-20.442,4.273-24.54,17.544
						c-1.302,4.218-0.764,9.796,1.143,14.112c0.983,2.222,2.812,4.957,6.836,10.147c3.571,4.604,3.338,4.454,4.43,5.791
						c2.619,3.209,7.631,8.58,16.615,14.64c0.352-2.462,0.954-5.524,2.055-8.888c0.424-1.294,2.138-6.356,5.051-10.698
						C1085.29,2077.876,1091.129,2079.438,1094.674,2073.442z"/>
					
						<linearGradient id="SVGID_00000081648914406272900160000003382545884153766798_" gradientUnits="userSpaceOnUse" x1="-687.3922" y1="2679.7068" x2="-633.2734" y2="2574.4758" gradientTransform="matrix(-0.827 0.5622 0.5622 0.827 -938.6846 289.0357)">
						<stop  offset="0" style="stop-color:#FFC444"/>
						<stop  offset="0.9964" style="stop-color:#F36F56"/>
					</linearGradient>
					<path style="fill:url(#SVGID_00000081648914406272900160000003382545884153766798_);" d="M1060.887,2100.453
						c0,0,9.661,12.881,26.165,10.202c14.777-2.4,13.745-35.957,3.565-42.119c-3.396-2.056-9.836-2.425-14.857-0.482
						c-2.967,1.147-3.876,2.514-8.758,4.295c-4.503,1.642-5.858,1.256-7.138,2.564c-1.604,1.635-2.534,5.356,1.316,14.825
						c-3.113-2.601-6.625-3.375-8.928-2.003c-0.367,0.219-1.322,1.012-1.795,2.119
						C1048.745,2093.864,1052.691,2098.393,1060.887,2100.453z"/>
					
						<linearGradient id="SVGID_00000119119462171238503640000004535029228045217171_" gradientUnits="userSpaceOnUse" x1="3347.6858" y1="2685.0239" x2="3318.1812" y2="2610.0874" gradientTransform="matrix(0.827 -0.5622 0.5622 0.827 -3149.7031 1791.1674)">
						<stop  offset="0" style="stop-color:#444B8C"/>
						<stop  offset="0.9964" style="stop-color:#3E4177"/>
					</linearGradient>
					<path style="fill:url(#SVGID_00000119119462171238503640000004535029228045217171_);" d="M1057.532,2081.482
						c0,0,6.298,11.669,9.803,14.422c3.506,2.754,11.405,4.434,19.072,0.25c7.668-4.184,11.922-8.103,11.922-8.103
						s3.139,16.17,1.229,18.167c-1.909,1.999-16.047,10.656-20.109,10.042c-4.063-0.613-13.984-8.618-16.28-13.574
						c-2.296-4.956-5.061-17.822-5.061-17.822L1057.532,2081.482z"/>
				</g>
			</g>
		</g>
		<g>
			
				<linearGradient id="SVGID_00000165202577161659187370000007008098499013677225_" gradientUnits="userSpaceOnUse" x1="2161.9497" y1="2355.0854" x2="2787.7456" y2="4366.0649">
				<stop  offset="0" style="stop-color:#444B8C"/>
				<stop  offset="0.9964" style="stop-color:#26264F"/>
			</linearGradient>
			<path style="fill:url(#SVGID_00000165202577161659187370000007008098499013677225_);" d="M1623.653,3240.941
				c-40.09,1.115-72.814-32.497-72.814-74.93v-808.391c0-42.433,32.724-76.423,72.814-75.77l1344.737,21.904
				c35.159,0.573,63.673,33.216,63.673,72.768v753.502c0,39.552-28.514,72.524-63.673,73.502L1623.653,3240.941z"/>
			
				<linearGradient id="SVGID_00000147221911212804377130000014061489078349544381_" gradientUnits="userSpaceOnUse" x1="2168.3958" y1="2370.1328" x2="2770.7981" y2="4305.938">
				<stop  offset="0.0036" style="stop-color:#E38DDD"/>
				<stop  offset="1" style="stop-color:#9571F6"/>
			</linearGradient>
			<path style="fill:url(#SVGID_00000147221911212804377130000014061489078349544381_);" d="M2968.39,2327.081l-1344.738-20.366
				c-26.281-0.398-47.634,22.536-47.634,51.227V3165.4c0,28.691,21.352,51.378,47.634,50.677L2968.39,3180.2
				c23.077-0.616,41.747-22.84,41.747-49.643v-754.315C3010.137,2349.44,2991.468,2327.431,2968.39,2327.081z"/>
			<polygon style="fill:#FFFFFF;" points="1842.31,3086.684 1742.466,3088.774 1742.466,2916.643 1842.31,2915.347 			"/>
			<polygon style="fill:#FFFFFF;" points="2006.683,3083.242 1908.362,3085.301 1908.362,2858.248 2006.683,2857.229 			"/>
			<polygon style="fill:#FFFFFF;" points="2168.565,3079.853 2071.732,3081.88 2071.732,2782.363 2168.565,2781.698 			"/>
			<polygon style="fill:#FFFFFF;" points="2328.011,3076.514 2232.633,3078.511 2232.633,2683.382 2328.011,2683.168 			"/>
			<path style="fill:#FFFFFF;" d="M1742.458,2769.939c-2.247,0.014-4.53-0.411-6.731-1.323c-8.832-3.662-12.976-13.799-9.249-22.636
				c4.261-10.102,14.567-11.447,20.099-12.167c4.186-0.545,9.869-1.058,17.058-1.706
				c235.783-21.256,403.854-116.343,502.701-281.796c4.734-7.924,14.881-10.359,22.657-5.452
				c7.771,4.911,10.239,15.308,5.515,23.228c-66.839,112.085-164.462,194.614-290.961,245.206
				c-102.255,40.896-196.47,49.543-236.954,53.258c-6.713,0.615-13.624,1.25-16.832,1.731
				C1747.49,2769.348,1744.997,2769.924,1742.458,2769.939z M1758.324,2759.503c-0.001,0.002-0.001,0.002-0.001,0.002
				S1758.323,2759.506,1758.324,2759.503z M1758.342,2759.465c-0.003,0.005-0.004,0.007-0.005,0.01
				C1758.338,2759.472,1758.339,2759.469,1758.342,2759.465z M1758.357,2759.426c-0.001,0.005-0.004,0.01-0.006,0.014
				C1758.354,2759.436,1758.356,2759.431,1758.357,2759.426z M1758.374,2759.387c-0.002,0.008-0.005,0.012-0.007,0.02
				C1758.369,2759.399,1758.372,2759.395,1758.374,2759.387z M1758.391,2759.349c-0.002,0.007-0.006,0.014-0.008,0.022
				C1758.385,2759.363,1758.389,2759.356,1758.391,2759.349z M1758.409,2759.307c-0.004,0.01-0.008,0.017-0.011,0.027
				C1758.402,2759.324,1758.405,2759.317,1758.409,2759.307z M1758.429,2759.259c-0.005,0.012-0.011,0.024-0.016,0.037
				C1758.419,2759.283,1758.423,2759.271,1758.429,2759.259z"/>
			<path style="fill:#FFFFFF;" d="M2296.299,2548.312c-8.608-0.036-15.856-6.921-16.424-15.853l-4.691-73.906l-68.859,46.598
				c-7.623,5.149-17.947,3.006-23.057-4.803c-5.112-7.818-3.064-18.338,4.572-23.49l116.509-78.618l8.379,132.194
				c0.588,9.29-6.279,17.281-15.346,17.847C2297.02,2548.303,2296.657,2548.314,2296.299,2548.312z"/>
			<path style="opacity:0.68;fill:#FFFFFF;" d="M2479.99,2486.194c0,13.899-10.906,25.101-24.376,25.021
				c-13.487-0.08-24.433-11.439-24.433-25.371c0-13.931,10.946-25.134,24.433-25.02
				C2469.083,2460.936,2479.99,2472.295,2479.99,2486.194z"/>
			<polygon style="opacity:0.68;fill:#FFFFFF;" points="2934.189,2544.324 2516.729,2542.451 2516.729,2430.463 2934.189,2434.579 
							"/>
			<path style="opacity:0.68;fill:#FFFFFF;" d="M2479.99,2639.06c0,13.899-10.906,25.181-24.376,25.199
				c-13.487,0.018-24.433-11.261-24.433-25.193c0-13.931,10.946-25.214,24.433-25.199
				C2469.083,2613.882,2479.99,2625.161,2479.99,2639.06z"/>
			<polygon style="opacity:0.68;fill:#FFFFFF;" points="2934.189,2693.866 2516.729,2695.048 2516.729,2583.06 2934.189,2584.12 			
				"/>
			<path style="opacity:0.68;fill:#FFFFFF;" d="M2479.99,2944.791c0,13.899-10.906,25.341-24.376,25.556
				c-13.487,0.216-24.433-10.903-24.433-24.835c0-13.931,10.946-25.374,24.433-25.557
				C2469.083,2919.773,2479.99,2930.892,2479.99,2944.791z"/>
			<polygon style="opacity:0.68;fill:#FFFFFF;" points="2934.189,2965.513 2516.729,2972.245 2516.729,2916.251 2934.189,2910.639 
							"/>
			<path style="opacity:0.68;fill:#FFFFFF;" d="M2479.99,3045.285c0,13.899-10.906,25.393-24.376,25.673
				c-13.487,0.281-24.433-10.785-24.433-24.717c0-13.931,10.946-25.427,24.433-25.675
				C2469.083,3020.319,2479.99,3031.386,2479.99,3045.285z"/>
			<polygon style="opacity:0.68;fill:#FFFFFF;" points="2934.189,3063.822 2516.729,3072.562 2516.729,3016.568 2934.189,3008.948 
							"/>
		</g>
	</g>
</g>
</svg>
